<?xml version="1.0" ?>
<svg xmlns="http://www.w3.org/2000/svg" width="244" height="84" viewBox="-10 -10 244 84">
  <style>
.dot { fill: white; stroke: black; stroke-width: 0.5; }
.index { font-size: 3px; fill: black; text-anchor: middle; dominant-baseline: central; }
.matrix { font-size: 3px; fill: lightgrey; text-anchor: middle; }
</style>
  <g>
    <circle class="dot" cx="94" cy="64" r="4"/>
    <text class="index" x="94" y="64">6</text>
    <text class="matrix" x="94" y="70">(3,0)</text>
  </g>
  <g>
    <circle class="dot" cx="79" cy="60" r="4"/>
    <text class="index" x="79" y="60">7</text>
    <text class="matrix" x="79" y="66">(3,5)</text>
  </g>
  <g>
    <circle class="dot" cx="65" cy="53" r="4"/>
    <text class="index" x="65" y="53">8</text>
    <text class="matrix" x="65" y="59">(3,1)</text>
  </g>
  <g>
    <circle class="dot" cx="51" cy="49" r="4"/>
    <text class="index" x="51" y="49">9</text>
    <text class="matrix" x="51" y="55">(3,2)</text>
  </g>
  <g>
    <circle class="dot" cx="36" cy="49" r="4"/>
    <text class="index" x="36" y="49">10</text>
    <text class="matrix" x="36" y="55">(3,4)</text>
  </g>
  <g>
    <circle class="dot" cx="101" cy="49" r="4"/>
    <text class="index" x="101" y="49">11</text>
    <text class="matrix" x="101" y="55">(2,0)</text>
  </g>
  <g>
    <circle class="dot" cx="87" cy="45" r="4"/>
    <text class="index" x="87" y="45">12</text>
    <text class="matrix" x="87" y="51">(3,3)</text>
  </g>
  <g>
    <circle class="dot" cx="72" cy="38" r="4"/>
    <text class="index" x="72" y="38">13</text>
    <text class="matrix" x="72" y="44">(2,1)</text>
  </g>
  <g>
    <circle class="dot" cx="58" cy="34" r="4"/>
    <text class="index" x="58" y="34">14</text>
    <text class="matrix" x="58" y="40">(2,2)</text>
  </g>
  <g>
    <circle class="dot" cx="43" cy="30" r="4"/>
    <text class="index" x="43" y="30">15</text>
    <text class="matrix" x="43" y="36">(2,3)</text>
  </g>
  <g>
    <circle class="dot" cx="29" cy="34" r="4"/>
    <text class="index" x="29" y="34">16</text>
    <text class="matrix" x="29" y="40">(2,4)</text>
  </g>
  <g>
    <circle class="dot" cx="14" cy="41" r="4"/>
    <text class="index" x="14" y="41">17</text>
    <text class="matrix" x="14" y="47">(2,5)</text>
  </g>
  <g>
    <circle class="dot" cx="0" cy="41" r="4"/>
    <text class="index" x="0" y="41">18</text>
    <text class="matrix" x="0" y="47">(2,6)</text>
  </g>
  <g>
    <circle class="dot" cx="72" cy="23" r="4"/>
    <text class="index" x="72" y="23">19</text>
    <text class="matrix" x="72" y="29">(1,1)</text>
  </g>
  <g>
    <circle class="dot" cx="58" cy="19" r="4"/>
    <text class="index" x="58" y="19">20</text>
    <text class="matrix" x="58" y="25">(1,2)</text>
  </g>
  <g>
    <circle class="dot" cx="43" cy="15" r="4"/>
    <text class="index" x="43" y="15">21</text>
    <text class="matrix" x="43" y="21">(1,3)</text>
  </g>
  <g>
    <circle class="dot" cx="29" cy="19" r="4"/>
    <text class="index" x="29" y="19">22</text>
    <text class="matrix" x="29" y="25">(1,4)</text>
  </g>
  <g>
    <circle class="dot" cx="14" cy="26" r="4"/>
    <text class="index" x="14" y="26">23</text>
    <text class="matrix" x="14" y="32">(1,5)</text>
  </g>
  <g>
    <circle class="dot" cx="0" cy="26" r="4"/>
    <text class="index" x="0" y="26">24</text>
    <text class="matrix" x="0" y="32">(1,6)</text>
  </g>
  <g>
    <circle class="dot" cx="72" cy="8" r="4"/>
    <text class="index" x="72" y="8">25</text>
    <text class="matrix" x="72" y="14">(0,1)</text>
  </g>
  <g>
    <circle class="dot" cx="58" cy="4" r="4"/>
    <text class="index" x="58" y="4">26</text>
    <text class="matrix" x="58" y="10">(0,2)</text>
  </g>
  <g>
    <circle class="dot" cx="43" cy="0" r="4"/>
    <text class="index" x="43" y="0">27</text>
    <text class="matrix" x="43" y="6">(0,3)</text>
  </g>
  <g>
    <circle class="dot" cx="29" cy="4" r="4"/>
    <text class="index" x="29" y="4">28</text>
    <text class="matrix" x="29" y="10">(0,4)</text>
  </g>
  <g>
    <circle class="dot" cx="14" cy="11" r="4"/>
    <text class="index" x="14" y="11">29</text>
    <text class="matrix" x="14" y="17">(0,5)</text>
  </g>
  <g>
    <circle class="dot" cx="0" cy="11" r="4"/>
    <text class="index" x="0" y="11">30</text>
    <text class="matrix" x="0" y="17">(0,6)</text>
  </g>
  <g>
    <circle class="dot" cx="130" cy="64" r="4"/>
    <text class="index" x="130" y="64">31</text>
    <text class="matrix" x="130" y="70">(7,0)</text>
  </g>
  <g>
    <circle class="dot" cx="145" cy="60" r="4"/>
    <text class="index" x="145" y="60">32</text>
    <text class="matrix" x="145" y="66">(7,5)</text>
  </g>
  <g>
    <circle class="dot" cx="159" cy="53" r="4"/>
    <text class="index" x="159" y="53">33</text>
    <text class="matrix" x="159" y="59">(7,1)</text>
  </g>
  <g>
    <circle class="dot" cx="173" cy="49" r="4"/>
    <text class="index" x="173" y="49">34</text>
    <text class="matrix" x="173" y="55">(7,2)</text>
  </g>
  <g>
    <circle class="dot" cx="188" cy="49" r="4"/>
    <text class="index" x="188" y="49">35</text>
    <text class="matrix" x="188" y="55">(7,4)</text>
  </g>
  <g>
    <circle class="dot" cx="123" cy="49" r="4"/>
    <text class="index" x="123" y="49">36</text>
    <text class="matrix" x="123" y="55">(6,0)</text>
  </g>
  <g>
    <circle class="dot" cx="137" cy="45" r="4"/>
    <text class="index" x="137" y="45">37</text>
    <text class="matrix" x="137" y="51">(7,3)</text>
  </g>
  <g>
    <circle class="dot" cx="152" cy="38" r="4"/>
    <text class="index" x="152" y="38">38</text>
    <text class="matrix" x="152" y="44">(6,1)</text>
  </g>
  <g>
    <circle class="dot" cx="166" cy="34" r="4"/>
    <text class="index" x="166" y="34">39</text>
    <text class="matrix" x="166" y="40">(6,2)</text>
  </g>
  <g>
    <circle class="dot" cx="181" cy="30" r="4"/>
    <text class="index" x="181" y="30">40</text>
    <text class="matrix" x="181" y="36">(6,3)</text>
  </g>
  <g>
    <circle class="dot" cx="195" cy="34" r="4"/>
    <text class="index" x="195" y="34">41</text>
    <text class="matrix" x="195" y="40">(6,4)</text>
  </g>
  <g>
    <circle class="dot" cx="210" cy="41" r="4"/>
    <text class="index" x="210" y="41">42</text>
    <text class="matrix" x="210" y="47">(6,5)</text>
  </g>
  <g>
    <circle class="dot" cx="224" cy="41" r="4"/>
    <text class="index" x="224" y="41">43</text>
    <text class="matrix" x="224" y="47">(6,6)</text>
  </g>
  <g>
    <circle class="dot" cx="152" cy="23" r="4"/>
    <text class="index" x="152" y="23">44</text>
    <text class="matrix" x="152" y="29">(5,1)</text>
  </g>
  <g>
    <circle class="dot" cx="166" cy="19" r="4"/>
    <text class="index" x="166" y="19">45</text>
    <text class="matrix" x="166" y="25">(5,2)</text>
  </g>
  <g>
    <circle class="dot" cx="181" cy="15" r="4"/>
    <text class="index" x="181" y="15">46</text>
    <text class="matrix" x="181" y="21">(5,3)</text>
  </g>
  <g>
    <circle class="dot" cx="195" cy="19" r="4"/>
    <text class="index" x="195" y="19">47</text>
    <text class="matrix" x="195" y="25">(5,4)</text>
  </g>
  <g>
    <circle class="dot" cx="210" cy="26" r="4"/>
    <text class="index" x="210" y="26">48</text>
    <text class="matrix" x="210" y="32">(5,5)</text>
  </g>
  <g>
    <circle class="dot" cx="224" cy="26" r="4"/>
    <text class="index" x="224" y="26">49</text>
    <text class="matrix" x="224" y="32">(5,6)</text>
  </g>
  <g>
    <circle class="dot" cx="152" cy="8" r="4"/>
    <text class="index" x="152" y="8">50</text>
    <text class="matrix" x="152" y="14">(4,1)</text>
  </g>
  <g>
    <circle class="dot" cx="166" cy="4" r="4"/>
    <text class="index" x="166" y="4">51</text>
    <text class="matrix" x="166" y="10">(4,2)</text>
  </g>
  <g>
    <circle class="dot" cx="181" cy="0" r="4"/>
    <text class="index" x="181" y="0">52</text>
    <text class="matrix" x="181" y="6">(4,3)</text>
  </g>
  <g>
    <circle class="dot" cx="195" cy="4" r="4"/>
    <text class="index" x="195" y="4">53</text>
    <text class="matrix" x="195" y="10">(4,4)</text>
  </g>
  <g>
    <circle class="dot" cx="210" cy="11" r="4"/>
    <text class="index" x="210" y="11">54</text>
    <text class="matrix" x="210" y="17">(4,5)</text>
  </g>
  <g>
    <circle class="dot" cx="224" cy="11" r="4"/>
    <text class="index" x="224" y="11">55</text>
    <text class="matrix" x="224" y="17">(4,6)</text>
  </g>
</svg>
